PathFileType	4	(X/Y/Z)	Walking06.trc	
DataRate	CameraRate	NumFrames	NumMarkers	Units	OrigDataRate	OrigDataStartFrame	OrigNumFrames	
100.00	100.00	17	19	mm	100.00	433	98	
Frame#	Time	RPSI			LPSI			RASI			LASI			RTHI			RKNE			RHFB			RTUB			RSHN			RANK			RLCA			RSTL			RPCA			RCPG			RHEE			RP5M			RP1M			RD5M			RTOE			
		X1	Y1	Z1	X2	Y2	Z2	X3	Y3	Z3	X4	Y4	Z4	X5	Y5	Z5	X6	Y6	Z6	X7	Y7	Z7	X8	Y8	Z8	X9	Y9	Z9	X10	Y10	Z10	X11	Y11	Z11	X12	Y12	Z12	X13	Y13	Z13	X14	Y14	Z14	X15	Y15	Z15	X16	Y16	Z16	X17	Y17	Z17	X18	Y18	Z18	X19	Y19	Z19	

74	0.730	252.66882	919.02307	-69.16194	247.80692	930.39642	-162.80161	443.53436	870.07611	-4.34880	440.43457	878.34967	-239.40196	427.94174	574.50153	56.74128	477.89380	445.89288	51.66374	466.82394	411.83109	51.91439	522.30383	381.69403	2.40030	469.12292	321.38669	-12.64801	244.11871	173.23795	-5.67566	208.10008	165.13995	-14.76979	236.50288	153.47850	-77.79992	216.82500	192.16539	-50.93847	191.87759	195.46631	-55.15838	190.68248	162.48459	-59.51863	277.71750	83.25966	19.56093	327.38232	107.18440	-54.80015	306.21039	64.69715	28.70143	345.25668	61.95975	-5.53703 
75	0.740	266.38828	920.57068	-69.29526	261.58917	931.96558	-163.15356	457.60379	872.14606	-5.41360	454.19882	878.85706	-240.22920	447.06763	577.28308	55.24460	500.26364	449.03891	48.41558	490.38196	413.59906	48.77297	546.54376	386.75021	-1.54436	496.83554	323.70602	-15.94281	281.67639	161.66193	-4.53598				275.01614	140.66499	-76.81934	252.75043	177.94070	-50.20599	226.38039	179.57680	-54.22887	228.54906	146.50287	-57.96065	322.16568	75.58216	21.52523	369.46552	102.12194	-53.36390	351.90521	58.33099	29.48063	390.69016	58.17551	-5.31933 
76	0.750	280.11902	921.77393	-69.29472	275.36053	933.04706	-163.20995	471.63834	873.95837	-6.13455	467.25214	878.87524	-240.88374	465.68576	579.61884	53.68857	521.72229	451.85831	45.20023	513.07855	415.22791	45.60595	569.77258	391.40274	-5.47122	523.96417	325.66318	-19.13085	320.34186	149.53436	-3.67558	312.25452	129.01239	-11.52287	315.44067	128.53041	-76.58397	291.13940	164.36012	-48.89003	262.53308	163.42525	-52.28399	267.70801	130.32271	-56.27751	367.42325	66.99158	22.96776	411.82867	96.58642	-53.26381	398.42700	52.14421	30.17581	436.52426	54.52324	-5.43841 
77	0.760	293.96466	922.58832	-69.08163	289.19778	933.61694	-162.98091	485.67712	875.56085	-6.44422	480.80908	878.71936	-241.50951	484.30927	581.64246	52.42869	542.19287	454.31946	41.97364	534.95428	416.61203	42.36783	591.92633	395.57547	-9.43877	550.51361	327.24335	-22.10313	360.29364	137.03821	-2.83191	343.19028	118.89347	-10.32309	357.45853	116.59602	-76.05236	330.36743	150.13104	-47.60736	300.38541	146.96780	-50.50292	308.10889	114.34317	-54.51740	412.95154	58.32478	23.54893	454.58575	91.23929	-53.32369	445.47333	46.18879	30.39563	482.41016	51.11756	-5.88034 
78	0.770	307.86945	922.97394	-68.61043	302.88846	933.86316	-162.68127	499.76440	876.84155	-6.35395	494.19098	878.14758	-241.86555	502.56961	583.16071	51.01802	561.85461	456.26193	38.61634	556.20636	417.66220	39.22321	613.06488	399.26837	-13.39094	576.32269	328.40271	-24.95193	401.19897	124.89234	-1.83087	382.70789	106.45885	-8.94081	396.33432	102.70119	-74.31232	356.49506	140.58951	-46.65767	339.76831	131.02415	-48.17544	349.83600	98.48113	-52.62413	460.09457	51.14813	23.82829	497.82727	86.19071	-53.59276	493.02029	40.79450	30.20357	528.80969	48.37572	-6.42679 
79	0.780	321.74557	922.89880	-68.02254	316.65979	933.68634	-162.13242	513.87750	877.70020	-6.04189	507.37326	877.15552	-241.97383	520.51947	584.14734	49.44497	580.46021	457.41486	35.38108	576.74323	418.18475	36.00335	633.16272	402.29510	-17.33417	601.55005	329.31400	-27.72050	442.79892	113.49346	-0.86305	424.94720	93.96658	-8.16568	438.14450	90.44713	-73.05060				380.55786	115.23553	-46.08636	392.73593	83.14397	-51.02026	507.51590	44.52462	24.15520	541.84113	82.04204	-53.89754	541.03076	36.46307	30.05485	575.74689	46.77962	-7.04068 
80	0.790	335.78116	922.23956	-67.24409	330.51575	932.90253	-161.15858	528.07343	878.13043	-5.62298	520.70081	875.94067	-241.96735	537.96796	584.32507	47.47292	598.39435	457.96793	31.78852	595.95746	418.14291	32.63464	652.32947	404.70230	-21.38938	626.06384	330.08899	-30.50779	484.84021	103.36931	-0.20099	468.13757	82.49036	-7.92401	481.39365	79.48969	-71.83568	451.51840	108.28713	-44.39227	422.44043	99.06097	-45.05993	436.75000	69.03413	-49.52391	555.08160	38.87238	24.35556	586.12915	78.77334	-54.20849	588.98993	33.17188	29.88681	623.10693	46.40447	-7.76060 
81	0.800	349.89935	921.05597	-66.29972	344.36746	931.54700	-159.99643	542.42609	878.00000	-5.23112	534.06476	874.48248	-241.82437	555.10046	583.84387	45.30940	615.45825	457.65796	28.12615	614.34998	417.34195	29.23001	670.64038	406.45273	-25.45276	649.98334	330.64481	-33.53857	527.58905	94.30779	0.22158	511.70599	72.13889	-7.13928	525.57349	70.16838	-70.73350				465.51657	84.88274	-43.58678	481.48083	56.28554	-48.31253	602.49603	34.50544	24.42365	629.24347	75.64595	-54.80348	636.70502	31.37546	29.73511	669.62488	46.67274	-8.53860 
82	0.810	364.20129	919.31531	-65.08930	358.27829	929.72931	-158.50769	556.98639	877.25720	-4.83502	547.69635	872.84174	-241.59091	571.66119	582.63361	43.02519	631.57306	456.61362	24.39666	632.11481	415.89981	25.85544	688.28461	407.37814	-29.59818	673.32281	331.19412	-36.66473	570.50287	86.38869	0.40173	555.78198	62.57652	-6.73533	569.47815	61.80259	-70.21342				508.74155	73.01665	-43.34393	526.73749	45.24970	-47.40126	649.58142	31.89102	24.18129	672.87366	74.40283	-55.46442	684.19348	31.60856	29.53167	715.54260	48.50932	-9.34762 
83	0.820	378.67572	917.05182	-63.69620	372.15799	927.52844	-156.67120	571.70667	875.88983	-4.63853	561.49976	870.98334	-241.38962	587.43359	580.79492	40.57583	646.88159	454.69626	20.97357	649.14423	413.65259	22.72635	705.49994	407.53699	-33.63355	695.95563	331.70438	-39.75688	613.25732	80.02173	0.00825	600.17078	54.02885	-7.04808	613.14288	55.10476	-70.15790	592.05511	75.15032	-42.64998	552.51575	62.31996	-43.65776	572.28284	36.04552	-46.95439	696.13422	31.19049	23.51666	716.17377	75.14931	-56.23950	730.92798	33.53737	28.75286	760.80109	52.28215	-10.39940 
84	0.830	393.13672	914.30975	-62.02199	386.14798	925.06122	-154.62018	586.51660	873.94299	-4.68690	575.19220	868.83905	-241.29877	602.66486	578.48157	38.62274	661.72534	452.11981	18.09096	665.84888	410.95193	20.07452	722.32581	407.05246	-37.36319	717.96741	332.25934	-42.66467	655.52429	75.48815	-0.94737	644.49634	49.16623	-7.51989	656.66748	49.88837	-70.69581	623.40137	70.23067	-43.37965	595.87573	53.52803	-44.24342	617.37018	28.73170	-47.53657	741.68860	32.41583	22.39915	758.26001	77.54907	-57.49051	776.40814	37.40326	27.27718	804.80579	57.74026	-11.89419 
85	0.840	407.73776	911.22589	-60.04447	400.16562	922.45044	-152.41763	601.50348	871.49323	-4.98871	588.18719	866.22687	-241.28413	617.55206	575.65790	37.40407	676.33246	448.77402	15.77551	682.22491	408.00131	17.84910	738.73102	406.33630	-40.49050	739.48645	333.06680	-45.24884	696.78357	72.57037	-2.54077	688.46832	46.84927	-8.30514	699.23303	46.83477	-72.22441	661.97833	65.51646	-45.01214	638.58936	46.49043	-45.84613	661.68805	23.24509	-49.21316	785.88409	35.26240	20.61553	798.93152	81.60533	-59.20274	819.76953	42.58412	25.08576	847.21655	64.86443	-13.84066 
86	0.850	422.49478	907.96448	-57.91388	414.12881	919.79407	-150.25049	616.70667	868.61365	-5.43971	600.71313	863.17706	-241.36389	632.06921	572.26807	36.98165	691.10016	445.16354	14.05140	698.07721	404.95837	16.03436	754.90369	405.65121	-42.84465	760.53656	334.03986	-47.48018	736.59851	71.17863	-4.76827	730.10779	45.19988	-10.36643	740.65198	46.50620	-74.65215	701.58643	62.14712	-47.26181	680.08777	41.11728	-48.43215	704.58936	19.89363	-51.98826	828.13934	38.98710	17.89630	837.91418	87.09537	-61.11801	861.35803	48.44487	22.77420	887.51099	73.21042	-16.01406 
87	0.860	437.72757	904.53192	-55.64396	428.27289	917.29926	-148.08794	632.00769	865.33893	-5.83794	614.42395	860.22925	-241.44257	646.16284	568.42371	37.28129	705.63660	441.59085	12.56143	713.67554	402.06604	14.34722	770.85870	405.01868	-44.52689	780.49237	334.94455	-48.93581	774.44000	71.06809	-7.37581	769.74329	44.86324	-13.09017	780.39984	47.54063	-77.31473	740.00159	60.23012	-50.11409	720.02966	37.82355	-51.59692	745.39661	18.89729	-55.08716	867.72693	44.25460	15.47213	874.80359	93.67896	-62.95396	900.11279	55.15015	20.82893	925.34869	82.31968	-18.15504 
88	0.870	453.23175	901.10754	-53.31472	442.60754	914.88586	-145.94003	647.41577	861.73761	-6.08870	628.15350	857.11969	-241.58444	659.55334	564.16455	38.13883	720.08789	438.06433	11.26651	729.03162	399.17044	12.76073	786.69836	404.53802	-46.05390	799.92206	335.91095	-49.98485	810.14349	72.12019	-10.00104	806.92334	45.74684	-15.96456	817.88147	49.55001	-80.18445	776.43896	59.64091	-53.16687	757.98602	36.29389	-55.08404	783.79706	19.54684	-58.17524	904.24542	50.81008	13.62875	909.49707	100.74027	-64.67648	935.89471	62.56384	19.36834	960.50525	91.60824	-19.89598 
89	0.880	468.04874	898.08905	-51.05849	457.13174	912.55511	-143.76187	662.97675	858.01929	-6.14966	641.97272	853.91888	-241.68188	671.77814	559.71014	39.10173	734.60199	434.78210	10.11089	744.38068	396.26407	11.34163	802.22162	404.08719	-47.51625	818.75513	336.89365	-50.97072	843.22644	73.99711	-12.40706	841.35400	47.47353	-18.68465	852.42450	52.20804	-82.62320	810.42651	60.13797	-55.90332	793.19513	36.20947	-58.51867	819.57819	21.00043	-61.17576	938.26819	56.94756	11.71996	941.61749	107.77827	-66.07344	969.55017	69.51532	17.77703	993.00616	100.55558	-21.33300 
90	0.890	483.16580	895.28589	-48.82310	471.91595	910.32019	-141.59351	678.57062	854.21527	-5.99411	655.86780	850.77771	-241.86432	684.00745	555.34137	39.39152	749.33655	431.64105	9.19868	759.84503	393.52100	10.17990	817.74969	403.45264	-49.02149	836.79901	337.77151	-51.94412	873.46460	76.17646	-14.46192	872.74768	49.52597	-21.07944	883.80444	55.04935	-84.60204	841.55347	61.21300	-58.41700	825.22998	36.92301	-61.45948	852.06677	22.96292	-63.71777	969.20245	62.52567	9.82208	970.95892	114.22705	-67.19455	1000.16107	75.98550	16.46690	1022.57300	108.57028	-22.50860 
